<svg width="214" height="44" viewBox="0 0 214 44" fill="none" xmlns="http://www.w3.org/2000/svg">
<rect width="214" height="44" fill="url(#paint0_linear_153_5011)"/>
<g clip-path="url(#clip0_153_5011)">
<path d="M58.6829 24.942L60.3529 26.6117C60.4701 26.7288 60.629 26.7947 60.7948 26.7947C60.9605 26.7947 61.1194 26.7288 61.2367 26.6117C61.4103 26.437 61.6169 26.2986 61.8445 26.2043C62.072 26.1101 62.316 26.0619 62.5623 26.0626C63.5963 26.0626 64.4373 26.9036 64.4373 27.9376C64.4379 28.184 64.3896 28.428 64.2953 28.6556C64.201 28.8832 64.0626 29.0898 63.8879 29.2636C63.7707 29.3808 63.7049 29.5397 63.7049 29.7054C63.7049 29.8712 63.7707 30.0301 63.8879 30.1473L65.5579 31.817C65.6801 31.9392 65.8398 32.0001 65.9998 32.0001C66.1598 32.0001 66.3198 31.9392 66.4416 31.817L78.3167 19.942C78.3748 19.884 78.421 19.8152 78.4525 19.7393C78.4839 19.6635 78.5002 19.5822 78.5002 19.5001C78.5002 19.418 78.4839 19.3367 78.4525 19.2609C78.421 19.1851 78.3748 19.1162 78.3167 19.0582L76.6466 17.3885C76.5294 17.2714 76.3705 17.2056 76.2048 17.2056C76.039 17.2056 75.8801 17.2714 75.7629 17.3885C75.5892 17.5632 75.3826 17.7016 75.1551 17.7959C74.9275 17.8901 74.6836 17.9383 74.4373 17.9376C73.4032 17.9376 72.5623 17.0967 72.5623 16.0626C72.5623 15.5617 72.7576 15.091 73.1116 14.7367C73.2288 14.6195 73.2946 14.4605 73.2946 14.2948C73.2946 14.1291 73.2288 13.9701 73.1116 13.8529L71.4417 12.1832C71.3244 12.0661 71.1655 12.0002 70.9998 12.0002C70.834 12.0002 70.6751 12.0661 70.5579 12.1832L58.6829 24.0582C58.6247 24.1162 58.5786 24.1851 58.5471 24.2609C58.5156 24.3367 58.4994 24.418 58.4994 24.5001C58.4994 24.5822 58.5156 24.6635 58.5471 24.7393C58.5786 24.8152 58.6247 24.884 58.6829 24.942ZM66.6248 17.8839L67.1204 18.3795C67.2423 18.5017 67.4023 18.5626 67.5623 18.5626C67.7223 18.5626 67.8823 18.5017 68.0041 18.3795C68.1213 18.2623 68.1871 18.1033 68.1871 17.9376C68.1871 17.7719 68.1213 17.6129 68.0041 17.4957L67.5085 17.0001L70.9998 13.5089L71.8298 14.3385C71.4908 14.8495 71.3107 15.4494 71.3123 16.0626C71.3123 17.7857 72.7141 19.1876 74.4373 19.1876C75.0503 19.1893 75.6502 19.0093 76.161 18.6704L76.9907 19.5001L73.4998 22.9914L73.0042 22.4957C72.9465 22.436 72.8775 22.3884 72.8013 22.3557C72.725 22.3229 72.643 22.3057 72.56 22.305C72.477 22.3042 72.3947 22.32 72.3179 22.3515C72.2411 22.3829 72.1713 22.4293 72.1127 22.488C72.054 22.5467 72.0076 22.6165 71.9761 22.6933C71.9447 22.7701 71.9289 22.8524 71.9296 22.9354C71.9303 23.0184 71.9476 23.1004 71.9803 23.1766C72.0131 23.2529 72.0607 23.3218 72.1204 23.3795L72.616 23.8751L65.9998 30.4914L65.1698 29.6617C65.5087 29.1507 65.6888 28.5508 65.6873 27.9376C65.6873 26.2145 64.2854 24.8126 62.5623 24.8126C61.9492 24.8109 61.3494 24.9909 60.8385 25.3298L60.0088 24.5001L66.6248 17.8839Z" fill="white"/>
<path d="M68.9956 20.2545C69.1175 20.3767 69.2775 20.4376 69.4375 20.4376C69.5975 20.4376 69.7575 20.3767 69.8794 20.2545C69.9965 20.1373 70.0624 19.9783 70.0624 19.8126C70.0624 19.6469 69.9965 19.4879 69.8794 19.3707L69.2544 18.7457C69.1967 18.686 69.1277 18.6384 69.0515 18.6057C68.9752 18.5729 68.8932 18.5557 68.8102 18.555C68.7273 18.5542 68.645 18.57 68.5681 18.6015C68.4913 18.6329 68.4216 18.6793 68.3629 18.738C68.3042 18.7967 68.2578 18.8665 68.2264 18.9433C68.1949 19.0201 68.1791 19.1024 68.1798 19.1854C68.1806 19.2683 68.1978 19.3504 68.2306 19.4266C68.2633 19.5029 68.3109 19.5718 68.3706 19.6295L68.9956 20.2545ZM70.2456 21.5045L70.8706 22.1295C70.9925 22.2517 71.1525 22.3126 71.3125 22.3126C71.4725 22.3126 71.6325 22.2517 71.7544 22.1295C71.8715 22.0123 71.9374 21.8533 71.9374 21.6876C71.9374 21.5219 71.8715 21.3629 71.7544 21.2457L71.1294 20.6207C71.0717 20.561 71.0027 20.5134 70.9265 20.4807C70.8502 20.4479 70.7682 20.4307 70.6852 20.43C70.6023 20.4292 70.52 20.445 70.4431 20.4765C70.3663 20.5079 70.2966 20.5543 70.2379 20.613C70.1792 20.6717 70.1328 20.7415 70.1014 20.8183C70.0699 20.8951 70.0541 20.9774 70.0548 21.0604C70.0556 21.1433 70.0728 21.2254 70.1056 21.3016C70.1383 21.3779 70.1859 21.4468 70.2456 21.5045Z" fill="white"/>
</g>
<path d="M94.5078 17.7246H90.123V30H87.7891V17.7246H83.4336V15.7812H94.5078V17.7246ZM97.0273 19.4336H102.633V28.0664H105.738V30H97.0273V28.0664H100.279V21.377H97.0273V19.4336ZM100.064 16.6992C100.064 16.5104 100.097 16.3379 100.162 16.1816C100.227 16.0189 100.322 15.8789 100.445 15.7617C100.562 15.651 100.702 15.5664 100.865 15.5078C101.035 15.4427 101.223 15.4102 101.432 15.4102C101.783 15.4102 102.066 15.5013 102.281 15.6836C102.503 15.8594 102.63 16.0872 102.662 16.3672C102.708 16.6536 102.659 16.9043 102.516 17.1191C102.372 17.3275 102.164 17.4674 101.891 17.5391C101.754 17.6628 101.591 17.7441 101.402 17.7832C101.214 17.8223 101.005 17.806 100.777 17.7344C100.543 17.6628 100.364 17.5358 100.24 17.3535C100.123 17.1647 100.064 16.9466 100.064 16.6992ZM113.102 28.3203C113.395 28.3203 113.674 28.278 113.941 28.1934C114.215 28.1022 114.456 27.9753 114.664 27.8125C114.866 27.6497 115.025 27.4577 115.143 27.2363C115.266 27.015 115.328 26.7708 115.328 26.5039H117.525C117.532 27.0182 117.415 27.5033 117.174 27.959C116.939 28.4082 116.62 28.7956 116.217 29.1211C115.807 29.4596 115.335 29.7266 114.801 29.9219C114.273 30.1107 113.717 30.2051 113.131 30.2051C112.317 30.2051 111.604 30.0651 110.992 29.7852C110.387 29.4987 109.882 29.1146 109.479 28.6328C109.068 28.151 108.759 27.5911 108.551 26.9531C108.342 26.3086 108.238 25.6217 108.238 24.8926V24.5508C108.238 23.8281 108.339 23.1445 108.541 22.5C108.749 21.8555 109.059 21.2923 109.469 20.8105C109.879 20.3288 110.387 19.9479 110.992 19.668C111.604 19.3815 112.314 19.2383 113.121 19.2383C113.759 19.2383 114.348 19.3359 114.889 19.5312C115.436 19.7266 115.904 20 116.295 20.3516C116.686 20.7031 116.988 21.123 117.203 21.6113C117.424 22.0996 117.532 22.6367 117.525 23.2227H115.328C115.328 22.9362 115.273 22.666 115.162 22.4121C115.058 22.1582 114.908 21.9368 114.713 21.748C114.511 21.5592 114.27 21.4095 113.99 21.2988C113.717 21.1882 113.421 21.1328 113.102 21.1328C112.613 21.1328 112.206 21.2337 111.881 21.4355C111.562 21.6309 111.308 21.888 111.119 22.207C110.917 22.526 110.774 22.8906 110.689 23.3008C110.611 23.7109 110.572 24.1276 110.572 24.5508V24.8926C110.572 25.3223 110.611 25.7454 110.689 26.1621C110.774 26.5723 110.914 26.9336 111.109 27.2461C111.298 27.5716 111.555 27.832 111.881 28.0273C112.206 28.2227 112.613 28.3203 113.102 28.3203ZM124.146 25.4004L122.877 26.6016V30H120.533V15H122.877V23.8281L123.844 22.7539L126.998 19.4336H129.811L125.699 23.8379L130.406 30H127.516L124.146 25.4004ZM137.457 30.1953C136.676 30.1953 135.96 30.0651 135.309 29.8047C134.664 29.5443 134.111 29.1829 133.648 28.7207C133.186 28.265 132.828 27.7279 132.574 27.1094C132.327 26.4844 132.203 25.8105 132.203 25.0879V24.6875C132.203 23.8607 132.333 23.112 132.594 22.4414C132.854 21.7708 133.212 21.1979 133.668 20.7227C134.124 20.2474 134.651 19.8828 135.25 19.6289C135.855 19.3685 136.5 19.2383 137.184 19.2383C137.945 19.2383 138.619 19.3685 139.205 19.6289C139.791 19.8828 140.283 20.2376 140.68 20.6934C141.077 21.1556 141.376 21.7057 141.578 22.3438C141.78 22.9818 141.881 23.6784 141.881 24.4336V25.4395H134.557V25.4883C134.628 25.9505 134.739 26.3379 134.889 26.6504C135.038 26.9629 135.243 27.2428 135.504 27.4902C135.764 27.7507 136.07 27.9525 136.422 28.0957C136.78 28.2389 137.171 28.3105 137.594 28.3105C138.173 28.3105 138.714 28.1999 139.215 27.9785C139.716 27.7507 140.13 27.4284 140.455 27.0117L141.705 28.2227C141.354 28.7305 140.813 29.1862 140.084 29.5898C139.361 29.9935 138.486 30.1953 137.457 30.1953ZM137.174 21.1328C136.842 21.1328 136.533 21.1947 136.246 21.3184C135.966 21.4355 135.715 21.6048 135.494 21.8262C135.273 22.054 135.087 22.3275 134.938 22.6465C134.788 22.9655 134.677 23.3268 134.605 23.7305H139.576V23.5742C139.576 23.2682 139.521 22.9655 139.41 22.666C139.299 22.36 139.143 22.0931 138.941 21.8652C138.746 21.6439 138.499 21.4681 138.199 21.3379C137.906 21.2012 137.564 21.1328 137.174 21.1328ZM149.225 16.8555V19.4336H153.199V21.1816H149.225V26.2305C149.225 26.6211 149.27 26.9499 149.361 27.2168C149.459 27.4772 149.592 27.6823 149.762 27.832C149.931 27.9883 150.133 28.099 150.367 28.1641C150.602 28.2292 150.859 28.2617 151.139 28.2617C151.34 28.2617 151.549 28.252 151.764 28.2324C151.979 28.2129 152.187 28.1868 152.389 28.1543C152.584 28.1283 152.766 28.099 152.936 28.0664C153.111 28.0273 153.258 27.9948 153.375 27.9688L153.629 29.5801C153.46 29.6842 153.255 29.7754 153.014 29.8535C152.779 29.9251 152.525 29.987 152.252 30.0391C151.979 30.0911 151.692 30.1302 151.393 30.1562C151.1 30.1888 150.807 30.2051 150.514 30.2051C149.98 30.2051 149.488 30.1335 149.039 29.9902C148.596 29.8405 148.215 29.6094 147.896 29.2969C147.577 28.9909 147.327 28.597 147.145 28.1152C146.969 27.6335 146.881 27.054 146.881 26.377V21.1816H144.322V19.4336H146.881V16.8555H149.225Z" fill="white"/>
<defs>
<linearGradient id="paint0_linear_153_5011" x1="107" y1="0" x2="107" y2="44" gradientUnits="userSpaceOnUse">
<stop stop-color="#1801E7"/>
<stop offset="1" stop-color="#CE1851"/>
</linearGradient>
<clipPath id="clip0_153_5011">
<rect width="20" height="20" fill="white" transform="translate(58.5 12)"/>
</clipPath>
</defs>
</svg>
