<svg width="214" height="44" viewBox="0 0 214 44" fill="none" xmlns="http://www.w3.org/2000/svg">
<rect width="214" height="44" fill="url(#paint0_linear_153_5017)"/>
<g clip-path="url(#clip0_153_5017)">
<path d="M89.8553 19.7356L88.9219 15.8511C88.7264 15.0511 88.033 14.5 87.2242 14.5H74.8775C74.0775 14.5 73.3753 15.06 73.1886 15.8511L72.2553 19.7356C72.0419 20.6422 72.2375 21.5667 72.8064 22.2956C72.8775 22.3933 72.9753 22.4644 73.0553 22.5533V28.7222C73.0553 29.7 73.8553 30.5 74.833 30.5H87.2775C88.2553 30.5 89.0553 29.7 89.0553 28.7222V22.5533C89.1353 22.4733 89.233 22.3933 89.3042 22.3044C89.873 21.5756 90.0775 20.6422 89.8553 19.7356ZM87.1975 16.2689L88.1308 20.1533C88.2197 20.5267 88.1397 20.9 87.9086 21.1933C87.7842 21.3533 87.5175 21.6111 87.073 21.6111C86.5308 21.6111 86.0597 21.1756 85.9975 20.5978L85.4819 16.2778L87.1975 16.2689ZM81.9442 16.2778H83.6864L84.1664 20.2956C84.2108 20.6422 84.1042 20.9889 83.873 21.2467C83.6775 21.4778 83.393 21.6111 83.0286 21.6111C82.433 21.6111 81.9442 21.0867 81.9442 20.4467V16.2778ZM77.9353 20.2956L78.4242 16.2778H80.1664V20.4467C80.1664 21.0867 79.6775 21.6111 79.0197 21.6111C78.7175 21.6111 78.4419 21.4778 78.2286 21.2467C78.0064 20.9889 77.8997 20.6422 77.9353 20.2956ZM73.9797 20.1533L74.8775 16.2778H76.6286L76.113 20.5978C76.0419 21.1756 75.5797 21.6111 75.0375 21.6111C74.6019 21.6111 74.3264 21.3533 74.2108 21.1933C73.9708 20.9089 73.8908 20.5267 73.9797 20.1533ZM74.833 28.7222V23.3622C74.9042 23.3711 74.9664 23.3889 75.0375 23.3889C75.8108 23.3889 76.513 23.0689 77.0286 22.5444C77.5619 23.0778 78.273 23.3889 79.0819 23.3889C79.8553 23.3889 80.5486 23.0689 81.0642 22.5622C81.5886 23.0689 82.2997 23.3889 83.0997 23.3889C83.8464 23.3889 84.5575 23.0778 85.0908 22.5444C85.6064 23.0689 86.3086 23.3889 87.0819 23.3889C87.153 23.3889 87.2153 23.3711 87.2864 23.3622V28.7222H74.833Z" fill="white"/>
</g>
<path d="M103.844 26.3379C103.844 26.0059 103.775 25.7129 103.639 25.459C103.502 25.2051 103.31 24.9772 103.062 24.7754C102.802 24.5866 102.493 24.4173 102.135 24.2676C101.783 24.1113 101.389 23.9714 100.953 23.8477C100.283 23.6589 99.6641 23.4277 99.0977 23.1543C98.5378 22.8743 98.0592 22.5618 97.6621 22.2168C97.265 21.8652 96.9525 21.4681 96.7246 21.0254C96.5033 20.5762 96.3926 20.0716 96.3926 19.5117C96.3926 18.9062 96.5228 18.3626 96.7832 17.8809C97.0436 17.3926 97.3952 16.9759 97.8379 16.6309C98.2806 16.2923 98.7949 16.0352 99.3809 15.8594C99.9733 15.6771 100.595 15.5859 101.246 15.5859C101.936 15.5859 102.577 15.6934 103.17 15.9082C103.769 16.1165 104.29 16.4095 104.732 16.7871C105.175 17.1712 105.523 17.6302 105.777 18.1641C106.038 18.6914 106.168 19.2773 106.168 19.9219H103.844C103.811 19.5638 103.733 19.2383 103.609 18.9453C103.492 18.6458 103.326 18.3887 103.111 18.1738C102.89 17.9655 102.62 17.8027 102.301 17.6855C101.988 17.5618 101.627 17.5 101.217 17.5C100.859 17.5 100.527 17.5488 100.221 17.6465C99.9212 17.7376 99.6608 17.8678 99.4395 18.0371C99.2181 18.2129 99.0456 18.4245 98.9219 18.6719C98.7982 18.9193 98.7363 19.196 98.7363 19.502C98.7428 19.8275 98.8275 20.1139 98.9902 20.3613C99.153 20.6022 99.3711 20.8138 99.6445 20.9961C99.9245 21.1784 100.243 21.3379 100.602 21.4746C100.966 21.6113 101.347 21.7383 101.744 21.8555C102.245 21.9987 102.734 22.1777 103.209 22.3926C103.691 22.6009 104.133 22.8548 104.537 23.1543C105.038 23.5319 105.439 23.9844 105.738 24.5117C106.044 25.0326 106.197 25.6348 106.197 26.3184C106.197 26.9499 106.064 27.5065 105.797 27.9883C105.536 28.4701 105.185 28.8704 104.742 29.1895C104.293 29.5215 103.772 29.7721 103.18 29.9414C102.587 30.1042 101.962 30.1855 101.305 30.1855C100.608 30.1855 99.9212 30.0781 99.2441 29.8633C98.5671 29.6419 97.9779 29.3229 97.4766 28.9062C97.0143 28.5156 96.6465 28.0566 96.373 27.5293C96.1061 27.002 95.9694 26.3965 95.9629 25.7129H98.3066C98.3392 26.1491 98.4303 26.5299 98.5801 26.8555C98.7363 27.1745 98.9479 27.4382 99.2148 27.6465C99.4753 27.8613 99.7812 28.0208 100.133 28.125C100.491 28.2292 100.882 28.2812 101.305 28.2812C101.663 28.2812 101.995 28.2389 102.301 28.1543C102.613 28.0697 102.883 27.9427 103.111 27.7734C103.333 27.6107 103.508 27.4089 103.639 27.168C103.775 26.9271 103.844 26.6504 103.844 26.3379ZM110.836 20.9375C110.973 20.7292 111.126 20.5371 111.295 20.3613C111.464 20.1855 111.643 20.0326 111.832 19.9023C112.125 19.6875 112.447 19.5247 112.799 19.4141C113.157 19.2969 113.535 19.2383 113.932 19.2383C114.485 19.2383 114.99 19.3197 115.445 19.4824C115.908 19.6452 116.301 19.8991 116.627 20.2441C116.952 20.5892 117.203 21.0319 117.379 21.5723C117.561 22.1061 117.652 22.7474 117.652 23.4961V30H115.318V23.4766C115.318 23.0859 115.27 22.7441 115.172 22.4512C115.081 22.1582 114.944 21.9206 114.762 21.7383C114.573 21.543 114.342 21.3997 114.068 21.3086C113.801 21.2109 113.492 21.1621 113.141 21.1621C112.867 21.1621 112.607 21.1947 112.359 21.2598C112.118 21.3249 111.897 21.4193 111.695 21.543C111.526 21.6406 111.367 21.7578 111.217 21.8945C111.074 22.0312 110.947 22.1842 110.836 22.3535V30H108.502V15H110.836V20.9375ZM120.084 24.6191C120.084 23.8509 120.195 23.1413 120.416 22.4902C120.637 21.8327 120.96 21.263 121.383 20.7812C121.799 20.2995 122.311 19.9219 122.916 19.6484C123.521 19.375 124.212 19.2383 124.986 19.2383C125.761 19.2383 126.451 19.375 127.057 19.6484C127.669 19.9219 128.186 20.2995 128.609 20.7812C129.026 21.263 129.345 21.8327 129.566 22.4902C129.788 23.1413 129.898 23.8509 129.898 24.6191V24.8242C129.898 25.599 129.788 26.3118 129.566 26.9629C129.345 27.6139 129.026 28.1803 128.609 28.6621C128.193 29.1439 127.678 29.5215 127.066 29.7949C126.461 30.0684 125.774 30.2051 125.006 30.2051C124.231 30.2051 123.538 30.0684 122.926 29.7949C122.314 29.5215 121.799 29.1439 121.383 28.6621C120.96 28.1803 120.637 27.6139 120.416 26.9629C120.195 26.3118 120.084 25.599 120.084 24.8242V24.6191ZM122.418 24.8242C122.418 25.2995 122.467 25.7487 122.564 26.1719C122.669 26.5951 122.828 26.9661 123.043 27.2852C123.251 27.6042 123.518 27.8581 123.844 28.0469C124.169 28.2292 124.557 28.3203 125.006 28.3203C125.442 28.3203 125.823 28.2292 126.148 28.0469C126.474 27.8581 126.741 27.6042 126.949 27.2852C127.158 26.9661 127.311 26.5951 127.408 26.1719C127.512 25.7487 127.564 25.2995 127.564 24.8242V24.6191C127.564 24.1569 127.512 23.7142 127.408 23.291C127.304 22.8678 127.151 22.4967 126.949 22.1777C126.734 21.8587 126.464 21.6048 126.139 21.416C125.82 21.2272 125.436 21.1328 124.986 21.1328C124.544 21.1328 124.16 21.2272 123.834 21.416C123.515 21.6048 123.251 21.8587 123.043 22.1777C122.828 22.4967 122.669 22.8678 122.564 23.291C122.467 23.7142 122.418 24.1569 122.418 24.6191V24.8242ZM132.545 34.0625V19.4336H134.693L134.781 20.5176C134.924 20.3418 135.081 20.1823 135.25 20.0391C135.419 19.8958 135.602 19.7721 135.797 19.668C136.051 19.5312 136.331 19.4271 136.637 19.3555C136.943 19.2773 137.268 19.2383 137.613 19.2383C138.29 19.2383 138.886 19.3685 139.4 19.6289C139.921 19.8893 140.357 20.2572 140.709 20.7324C141.054 21.2077 141.318 21.7773 141.5 22.4414C141.682 23.099 141.773 23.8249 141.773 24.6191V24.8242C141.773 25.5859 141.682 26.2956 141.5 26.9531C141.324 27.6107 141.061 28.1771 140.709 28.6523C140.357 29.1341 139.924 29.5117 139.41 29.7852C138.896 30.0586 138.307 30.1953 137.643 30.1953C137.265 30.1953 136.917 30.1562 136.598 30.0781C136.285 30 135.995 29.8861 135.729 29.7363C135.572 29.6452 135.423 29.541 135.279 29.4238C135.136 29.3066 135.003 29.1797 134.879 29.043V34.0625H132.545ZM139.439 24.6191C139.439 24.1439 139.391 23.6979 139.293 23.2812C139.202 22.8581 139.059 22.4902 138.863 22.1777C138.661 21.8652 138.404 21.6178 138.092 21.4355C137.779 21.2533 137.405 21.1621 136.969 21.1621C136.728 21.1621 136.503 21.1882 136.295 21.2402C136.087 21.2923 135.901 21.3672 135.738 21.4648C135.549 21.569 135.383 21.6992 135.24 21.8555C135.104 22.0117 134.983 22.1875 134.879 22.3828V27.0801C134.97 27.2624 135.081 27.4284 135.211 27.5781C135.341 27.7279 135.491 27.8581 135.66 27.9688C135.836 28.0729 136.035 28.1576 136.256 28.2227C136.477 28.2812 136.721 28.3105 136.988 28.3105C137.424 28.3105 137.796 28.2194 138.102 28.0371C138.414 27.8483 138.668 27.5944 138.863 27.2754C139.065 26.9499 139.212 26.5788 139.303 26.1621C139.394 25.7389 139.439 25.293 139.439 24.8242V24.6191Z" fill="white"/>
<defs>
<linearGradient id="paint0_linear_153_5017" x1="107" y1="0" x2="107" y2="44" gradientUnits="userSpaceOnUse">
<stop stop-color="#1801E7"/>
<stop offset="1" stop-color="#CE1851"/>
</linearGradient>
<clipPath id="clip0_153_5017">
<rect width="20" height="20" fill="white" transform="translate(70.5 12)"/>
</clipPath>
</defs>
</svg>
