<svg width="398" height="49" viewBox="0 0 398 49" fill="none" xmlns="http://www.w3.org/2000/svg">
<rect width="398" height="48" transform="translate(0 0.5)" fill="url(#paint0_linear_153_6091)"/>
<path d="M144.766 28.125H141.352L140.68 30.5H138.367L142.094 19.125H144.086L147.742 30.5H145.43L144.766 28.125ZM141.891 26.2578H144.25L143.086 22.0703L141.891 26.2578ZM152.733 28.7266H158.061V30.5H150.53V19.125H152.733V28.7266ZM163.942 28.7266H169.27V30.5H161.739V19.125H163.942V28.7266ZM186.705 19.125L187.783 23.3984L189.009 19.125H191.736V30.5H189.72V27.1328L189.814 21.8125L188.322 26.75H187.236L185.9 22.0234L185.994 27.1328V30.5H183.978V19.125H186.705ZM200.812 28.125H197.398L196.727 30.5H194.414L198.141 19.125H200.133L203.789 30.5H201.477L200.812 28.125ZM197.938 26.2578H200.297L199.133 22.0703L197.938 26.2578ZM214.787 20.9141H211.28V30.5H209.077V20.9141H205.616V19.125H214.787V20.9141ZM225.536 26.9375C225.499 27.5104 225.374 28.026 225.161 28.4844C224.953 28.9427 224.671 29.3333 224.317 29.6562C223.963 29.9792 223.541 30.2292 223.052 30.4062C222.562 30.5781 222.02 30.6641 221.427 30.6641C220.958 30.6641 220.523 30.6042 220.122 30.4844C219.726 30.3594 219.369 30.1823 219.052 29.9531C218.76 29.7396 218.499 29.4818 218.27 29.1797C218.046 28.8776 217.856 28.5443 217.7 28.1797C217.549 27.8151 217.432 27.4141 217.348 26.9766C217.27 26.5391 217.231 26.0755 217.231 25.5859V24.0547C217.231 23.5964 217.268 23.1615 217.341 22.75C217.414 22.3333 217.523 21.9479 217.669 21.5938C217.835 21.1615 218.054 20.776 218.325 20.4375C218.596 20.099 218.903 19.8125 219.247 19.5781C219.554 19.3802 219.89 19.2292 220.255 19.125C220.624 19.0156 221.02 18.9609 221.442 18.9609C222.067 18.9609 222.622 19.0495 223.106 19.2266C223.596 19.4036 224.012 19.6562 224.356 19.9844C224.7 20.3125 224.971 20.7135 225.169 21.1875C225.367 21.6615 225.492 22.1953 225.544 22.7891H223.356C223.335 22.4505 223.283 22.1536 223.2 21.8984C223.122 21.6432 223.007 21.4297 222.856 21.2578C222.7 21.0911 222.505 20.9661 222.27 20.8828C222.041 20.7943 221.765 20.75 221.442 20.75C221.27 20.75 221.109 20.7682 220.958 20.8047C220.812 20.8411 220.677 20.8958 220.552 20.9688C220.338 21.0938 220.156 21.2734 220.005 21.5078C219.859 21.737 219.742 22.0052 219.653 22.3125C219.585 22.5521 219.536 22.8177 219.505 23.1094C219.473 23.3958 219.458 23.7057 219.458 24.0391V25.5859C219.458 26.0391 219.481 26.4453 219.528 26.8047C219.58 27.1589 219.658 27.4688 219.762 27.7344C219.835 27.9167 219.921 28.0781 220.02 28.2188C220.124 28.3594 220.242 28.4766 220.372 28.5703C220.512 28.6745 220.669 28.7526 220.841 28.8047C221.018 28.8516 221.213 28.875 221.427 28.875C221.713 28.875 221.971 28.8385 222.2 28.7656C222.429 28.6927 222.624 28.5781 222.786 28.4219C222.947 28.2656 223.075 28.0651 223.169 27.8203C223.262 27.5755 223.32 27.2812 223.341 26.9375H225.536ZM236.355 30.5H234.183V25.5703H230.964V30.5H228.784V19.125H230.964V23.7891H234.183V19.125H236.355V30.5ZM247.056 25.5156H242.384V28.7266H247.845V30.5H240.181V19.125H247.822V20.9141H242.384V23.7812H247.056V25.5156ZM257.172 27.5312C257.172 27.3281 257.135 27.138 257.062 26.9609C256.995 26.7839 256.878 26.6172 256.711 26.4609C256.539 26.3099 256.315 26.1719 256.039 26.0469C255.768 25.9167 255.43 25.7969 255.023 25.6875C254.393 25.5156 253.839 25.3073 253.359 25.0625C252.885 24.8177 252.497 24.5495 252.195 24.2578C251.893 23.9661 251.664 23.6432 251.508 23.2891C251.357 22.9349 251.281 22.5495 251.281 22.1328C251.281 21.6536 251.383 21.2188 251.586 20.8281C251.789 20.4375 252.07 20.1042 252.43 19.8281C252.789 19.5521 253.214 19.3411 253.703 19.1953C254.193 19.0443 254.724 18.9688 255.297 18.9688C255.891 18.9688 256.432 19.0547 256.922 19.2266C257.417 19.3984 257.841 19.638 258.195 19.9453C258.549 20.2578 258.826 20.6276 259.023 21.0547C259.221 21.4818 259.32 21.9505 259.32 22.4609H257.18C257.169 22.2057 257.122 21.9714 257.039 21.7578C256.961 21.5443 256.844 21.3594 256.688 21.2031C256.526 21.0521 256.326 20.9349 256.086 20.8516C255.852 20.763 255.576 20.7188 255.258 20.7188C254.966 20.7188 254.706 20.7552 254.477 20.8281C254.253 20.8958 254.062 20.9922 253.906 21.1172C253.75 21.2474 253.63 21.401 253.547 21.5781C253.469 21.75 253.43 21.9375 253.43 22.1406C253.43 22.3542 253.482 22.5469 253.586 22.7188C253.695 22.8906 253.852 23.0443 254.055 23.1797C254.258 23.3203 254.503 23.4479 254.789 23.5625C255.081 23.6771 255.409 23.7839 255.773 23.8828C256.164 23.9922 256.536 24.125 256.891 24.2812C257.245 24.4375 257.57 24.6172 257.867 24.8203C258.315 25.1536 258.672 25.5417 258.938 25.9844C259.203 26.4271 259.336 26.9375 259.336 27.5156C259.336 28.0156 259.234 28.4609 259.031 28.8516C258.833 29.237 258.557 29.5625 258.203 29.8281C257.849 30.099 257.427 30.3047 256.938 30.4453C256.448 30.5807 255.914 30.6484 255.336 30.6484C254.768 30.6484 254.206 30.5651 253.648 30.3984C253.096 30.2266 252.615 29.9766 252.203 29.6484C251.812 29.3255 251.503 28.9453 251.273 28.5078C251.049 28.0703 250.938 27.5573 250.938 26.9688H253.094C253.104 27.3125 253.164 27.6068 253.273 27.8516C253.383 28.0964 253.536 28.2969 253.734 28.4531C253.927 28.6094 254.159 28.724 254.43 28.7969C254.706 28.8698 255.008 28.9062 255.336 28.9062C255.628 28.9062 255.885 28.8724 256.109 28.8047C256.339 28.737 256.531 28.6432 256.688 28.5234C256.844 28.4036 256.964 28.2604 257.047 28.0938C257.13 27.9219 257.172 27.7344 257.172 27.5312Z" fill="white"/>
<defs>
<linearGradient id="paint0_linear_153_6091" x1="26.5333" y1="-3.75" x2="171.205" y2="212.046" gradientUnits="userSpaceOnUse">
<stop stop-color="#1801E7"/>
<stop offset="1" stop-color="#CE1851"/>
</linearGradient>
</defs>
</svg>
